# xmcd
#
# Track frame offsets:
#	150
#	16868
#	29124
#	49669
#	57592
#	80404
#	99155
#	110617
#	132592
#	146177
#	159143
#	174544
#	194431
#	206891
#	221783
#
# Disc length: 3143 seconds
#
# Revision: 1
# Processed by: cddbd v1.5.2PL0 Copyright (c) Steve Scherf et al.
# Submitted via: audiograbber 1.83.01
#
DISCID=e00c450f
DTITLE=Various Artist - LG206
DYEAR=1900
DGENRE=Karaoke
TTITLE0=BB KIng - Thrill Is Gone, The
TTITLE1=Hooker, John Lee - Boom Boom
TTITLE2=Bland, Bobby - Stormy Monday Blues
TTITLE3=Guy, Buddy - Money
TTITLE4=Thorogood, George - Bad To The Bone
TTITLE5=Muddy Waters - Got My Mojo Working
TTITLE6=Bobby Blu Band - St. James Infirmary
TTITLE7=Carter, Clarence - Strokin'
TTITLE8=Muddy Waters - Hoochie Coochie Man
TTITLE9=King, Freddy - I'm Tore Down
TTITLE10=BB King - Is You Is Or Is You Ain't
TTITLE11=BB King - Rock Me Baby
TTITLE12=Jordon, Louis - Saturday Night Fish Fry
TTITLE13=Hooker, John Lee - One Bourbon, One Scotch And One Beer
TTITLE14=King, Albert - Born Under A Bad Sign
EXTD=
EXTT0=
EXTT1=
EXTT2=
EXTT3=
EXTT4=
EXTT5=
EXTT6=
EXTT7=
EXTT8=
EXTT9=
EXTT10=
EXTT11=
EXTT12=
EXTT13=
EXTT14=
PLAYORDER=
